<svg width="64" height="57" viewBox="0 0 64 57" fill="none" xmlns="http://www.w3.org/2000/svg">
<path d="M16.445 35.9091H19.5451L22.5302 41.5469H22.658L25.6431 35.9091H28.7433L23.9684 44.3722V49H21.2198V44.3722L16.445 35.9091ZM32.6216 49.1918C31.6117 49.1918 30.7424 48.9872 30.0137 48.5781C29.2892 48.1648 28.731 47.581 28.339 46.8267C27.9469 46.0682 27.7509 45.1712 27.7509 44.1357C27.7509 43.1257 27.9469 42.2393 28.339 41.4766C28.731 40.7138 29.2828 40.1193 29.9945 39.6932C30.7104 39.267 31.5499 39.054 32.513 39.054C33.1607 39.054 33.7637 39.1584 34.3219 39.3672C34.8844 39.5717 35.3745 39.8807 35.7921 40.294C36.214 40.7074 36.5421 41.2273 36.7765 41.8537C37.0108 42.4759 37.128 43.2045 37.128 44.0398V44.7876H28.8375V43.1001H34.5648C34.5648 42.7081 34.4796 42.3608 34.3091 42.0582C34.1387 41.7557 33.9022 41.5192 33.5996 41.3487C33.3013 41.174 32.954 41.0866 32.5577 41.0866C32.1444 41.0866 31.7779 41.1825 31.4583 41.3743C31.1429 41.5618 30.8958 41.8153 30.7168 42.1349C30.5378 42.4503 30.4462 42.8018 30.4419 43.1896V44.794C30.4419 45.2798 30.5314 45.6996 30.7104 46.0533C30.8936 46.407 31.1515 46.6797 31.4838 46.8714C31.8162 47.0632 32.2104 47.1591 32.6664 47.1591C32.9689 47.1591 33.2459 47.1165 33.4973 47.0312C33.7488 46.946 33.964 46.8182 34.1429 46.6477C34.3219 46.4773 34.4583 46.2685 34.552 46.0213L37.0705 46.1875C36.9426 46.7926 36.6806 47.321 36.2843 47.7727C35.8922 48.2202 35.3851 48.5696 34.763 48.821C34.1451 49.0682 33.4313 49.1918 32.6216 49.1918ZM47.074 41.9815L44.5811 42.1349C44.5385 41.9219 44.4469 41.7301 44.3063 41.5597C44.1657 41.3849 43.9803 41.2464 43.7502 41.1442C43.5243 41.0376 43.2537 40.9844 42.9384 40.9844C42.5165 40.9844 42.1607 41.0739 41.8709 41.2528C41.5811 41.4276 41.4363 41.6619 41.4363 41.956C41.4363 42.1903 41.53 42.3885 41.7175 42.5504C41.905 42.7124 42.2267 42.8423 42.6827 42.9403L44.4597 43.2983C45.4142 43.4943 46.1259 43.8097 46.5946 44.2443C47.0634 44.679 47.2978 45.25 47.2978 45.9574C47.2978 46.6009 47.1081 47.1655 46.7289 47.6513C46.3539 48.1371 45.8382 48.5163 45.182 48.7891C44.53 49.0575 43.7779 49.1918 42.9256 49.1918C41.6259 49.1918 40.5904 48.9212 39.8191 48.38C39.052 47.8345 38.6025 47.093 38.4703 46.1555L41.1486 46.0149C41.2296 46.4112 41.4256 46.7138 41.7367 46.9226C42.0478 47.1271 42.4462 47.2294 42.932 47.2294C43.4093 47.2294 43.7928 47.1378 44.0826 46.9545C44.3766 46.767 44.5257 46.5263 44.53 46.2322C44.5257 45.9851 44.4213 45.7827 44.2168 45.625C44.0123 45.4631 43.6969 45.3395 43.2708 45.2543L41.5705 44.9155C40.6117 44.7237 39.8979 44.3913 39.4292 43.9183C38.9647 43.4453 38.7324 42.8423 38.7324 42.1094C38.7324 41.4787 38.9029 40.9354 39.2438 40.4794C39.589 40.0234 40.0726 39.6719 40.6948 39.4247C41.3212 39.1776 42.0542 39.054 42.8936 39.054C44.1337 39.054 45.1096 39.3161 45.8212 39.8402C46.5371 40.3643 46.9547 41.0781 47.074 41.9815Z" fill="#0FBA00"/>
<path d="M47 7L26.5001 23.9999L29.4245 27.7023L47 7Z" fill="#0FBA00"/>
<path d="M21.5 18.5L26.5001 23.9999L33.127 23.9999L21.5 18.5Z" fill="#0FBA00"/>
</svg>
