<svg width="90" height="46" viewBox="0 0 90 46" fill="none" xmlns="http://www.w3.org/2000/svg">
<path d="M9.94442 38V24.9091H15.1092C16.1021 24.9091 16.948 25.0987 17.6468 25.478C18.3457 25.853 18.8784 26.375 19.2449 27.044C19.6156 27.7088 19.801 28.4759 19.801 29.3452C19.801 30.2145 19.6135 30.9815 19.2385 31.6463C18.8635 32.3111 18.3201 32.8288 17.6085 33.1996C16.9011 33.5703 16.0446 33.7557 15.0389 33.7557H11.747V31.5376H14.5914C15.1241 31.5376 15.563 31.446 15.9082 31.2628C16.2576 31.0753 16.5176 30.8175 16.688 30.4893C16.8627 30.157 16.9501 29.7756 16.9501 29.3452C16.9501 28.9105 16.8627 28.5312 16.688 28.2074C16.5176 27.8793 16.2576 27.6257 15.9082 27.4467C15.5588 27.2635 15.1156 27.1719 14.5787 27.1719H12.7122V38H9.94442ZM25.8638 38.1918C24.8539 38.1918 23.9846 37.9872 23.2559 37.5781C22.5314 37.1648 21.9732 36.581 21.5811 35.8267C21.1891 35.0682 20.9931 34.1712 20.9931 33.1357C20.9931 32.1257 21.1891 31.2393 21.5811 30.4766C21.9732 29.7138 22.525 29.1193 23.2367 28.6932C23.9526 28.267 24.7921 28.054 25.7551 28.054C26.4029 28.054 27.0059 28.1584 27.5641 28.3672C28.1266 28.5717 28.6167 28.8807 29.0343 29.294C29.4561 29.7074 29.7843 30.2273 30.0186 30.8537C30.253 31.4759 30.3702 32.2045 30.3702 33.0398V33.7876H22.0797V32.1001H27.807C27.807 31.7081 27.7218 31.3608 27.5513 31.0582C27.3809 30.7557 27.1444 30.5192 26.8418 30.3487C26.5435 30.174 26.1962 30.0866 25.7999 30.0866C25.3865 30.0866 25.0201 30.1825 24.7005 30.3743C24.3851 30.5618 24.138 30.8153 23.959 31.1349C23.78 31.4503 23.6884 31.8018 23.6841 32.1896V33.794C23.6841 34.2798 23.7736 34.6996 23.9526 35.0533C24.1358 35.407 24.3936 35.6797 24.726 35.8714C25.0584 36.0632 25.4526 36.1591 25.9086 36.1591C26.2111 36.1591 26.4881 36.1165 26.7395 36.0312C26.9909 35.946 27.2061 35.8182 27.3851 35.6477C27.5641 35.4773 27.7005 35.2685 27.7942 35.0213L30.3127 35.1875C30.1848 35.7926 29.9228 36.321 29.5265 36.7727C29.1344 37.2202 28.6273 37.5696 28.0051 37.821C27.3873 38.0682 26.6735 38.1918 25.8638 38.1918ZM34.8702 32.3239V38H32.1472V28.1818H34.7424V29.9141H34.8574C35.0748 29.343 35.4391 28.8913 35.9505 28.5589C36.4618 28.2223 37.0819 28.054 37.8105 28.054C38.4924 28.054 39.0868 28.2031 39.5939 28.5014C40.101 28.7997 40.4952 29.2259 40.7765 29.7798C41.0577 30.3295 41.1983 30.9858 41.1983 31.7486V38H38.4753V32.2344C38.4796 31.6335 38.3262 31.1648 38.0151 30.8281C37.704 30.4872 37.2757 30.3168 36.7303 30.3168C36.3638 30.3168 36.04 30.3956 35.7587 30.5533C35.4817 30.7109 35.2644 30.9411 35.1067 31.2436C34.9533 31.5419 34.8745 31.902 34.8702 32.3239ZM46.9624 38.1598C46.2166 38.1598 45.5412 37.968 44.9361 37.5845C44.3352 37.1967 43.858 36.6278 43.5043 35.8778C43.1548 35.1236 42.9801 34.1989 42.9801 33.1037C42.9801 31.9787 43.1612 31.0433 43.5234 30.2976C43.8857 29.5476 44.3672 28.9872 44.968 28.6165C45.5732 28.2415 46.2358 28.054 46.956 28.054C47.5057 28.054 47.9638 28.1477 48.3303 28.3352C48.701 28.5185 48.9993 28.7486 49.2251 29.0256C49.4553 29.2983 49.63 29.5668 49.7493 29.831H49.8324V24.9091H52.549V38H49.8643V36.4276H49.7493C49.6214 36.7003 49.4403 36.9709 49.206 37.2393C48.9759 37.5036 48.6754 37.723 48.3047 37.8977C47.9382 38.0724 47.4908 38.1598 46.9624 38.1598ZM47.8253 35.9929C48.2642 35.9929 48.6349 35.8736 48.9375 35.6349C49.2443 35.392 49.4787 35.0533 49.6406 34.6186C49.8068 34.1839 49.8899 33.6747 49.8899 33.0909C49.8899 32.5071 49.8089 32 49.647 31.5696C49.4851 31.1392 49.2507 30.8068 48.9439 30.5724C48.6371 30.3381 48.2642 30.2209 47.8253 30.2209C47.3778 30.2209 47.0007 30.3423 46.6939 30.5852C46.3871 30.8281 46.1548 31.1648 45.9972 31.5952C45.8395 32.0256 45.7607 32.5241 45.7607 33.0909C45.7607 33.6619 45.8395 34.1669 45.9972 34.6058C46.1591 35.0405 46.3913 35.3814 46.6939 35.6286C47.0007 35.8714 47.3778 35.9929 47.8253 35.9929ZM54.7878 38V28.1818H57.5108V38H54.7878ZM56.1557 26.9162C55.7509 26.9162 55.4036 26.782 55.1138 26.5135C54.8283 26.2408 54.6855 25.9148 54.6855 25.5355C54.6855 25.1605 54.8283 24.8388 55.1138 24.5703C55.4036 24.2976 55.7509 24.1612 56.1557 24.1612C56.5605 24.1612 56.9057 24.2976 57.1912 24.5703C57.481 24.8388 57.6259 25.1605 57.6259 25.5355C57.6259 25.9148 57.481 26.2408 57.1912 26.5135C56.9057 26.782 56.5605 26.9162 56.1557 26.9162ZM62.4151 32.3239V38H59.6921V28.1818H62.2873V29.9141H62.4023C62.6197 29.343 62.984 28.8913 63.4954 28.5589C64.0067 28.2223 64.6268 28.054 65.3555 28.054C66.0373 28.054 66.6317 28.2031 67.1388 28.5014C67.646 28.7997 68.0401 29.2259 68.3214 29.7798C68.6026 30.3295 68.7433 30.9858 68.7433 31.7486V38H66.0202V32.2344C66.0245 31.6335 65.8711 31.1648 65.56 30.8281C65.2489 30.4872 64.8207 30.3168 64.2752 30.3168C63.9087 30.3168 63.5849 30.3956 63.3036 30.5533C63.0266 30.7109 62.8093 30.9411 62.6516 31.2436C62.4982 31.5419 62.4194 31.902 62.4151 32.3239ZM75.3127 41.8864C74.4306 41.8864 73.6742 41.7649 73.0435 41.522C72.4171 41.2834 71.9185 40.9574 71.5478 40.544C71.177 40.1307 70.9363 39.6662 70.8255 39.1506L73.3439 38.8118C73.4206 39.0078 73.5421 39.1911 73.7083 39.3615C73.8745 39.532 74.0939 39.6683 74.3667 39.7706C74.6436 39.8771 74.9803 39.9304 75.3766 39.9304C75.9689 39.9304 76.4569 39.7855 76.8404 39.4957C77.2282 39.2102 77.4221 38.7308 77.4221 38.0575V36.2614H77.307C77.1877 36.5341 77.0087 36.7919 76.7701 37.0348C76.5314 37.2777 76.2246 37.4759 75.8496 37.6293C75.4746 37.7827 75.0272 37.8594 74.5073 37.8594C73.7701 37.8594 73.0989 37.6889 72.4938 37.348C71.8929 37.0028 71.4135 36.4766 71.0556 35.7692C70.7019 35.0575 70.525 34.1584 70.525 33.0717C70.525 31.9595 70.7061 31.0305 71.0684 30.2848C71.4306 29.5391 71.9121 28.9808 72.513 28.6101C73.1181 28.2393 73.7807 28.054 74.5009 28.054C75.0506 28.054 75.5108 28.1477 75.8816 28.3352C76.2523 28.5185 76.5506 28.7486 76.7765 29.0256C77.0066 29.2983 77.1834 29.5668 77.307 29.831H77.4093V28.1818H80.1131V38.0959C80.1131 38.9311 79.9086 39.63 79.4995 40.1925C79.0904 40.755 78.5236 41.1768 77.7992 41.4581C77.079 41.7436 76.2502 41.8864 75.3127 41.8864ZM75.3702 35.8139C75.8091 35.8139 76.1799 35.7053 76.4824 35.4879C76.7892 35.2663 77.0236 34.951 77.1855 34.5419C77.3517 34.1286 77.4348 33.6342 77.4348 33.0589C77.4348 32.4837 77.3539 31.9851 77.1919 31.5632C77.03 31.1371 76.7956 30.8068 76.4888 30.5724C76.182 30.3381 75.8091 30.2209 75.3702 30.2209C74.9228 30.2209 74.5456 30.3423 74.2388 30.5852C73.932 30.8239 73.6998 31.1562 73.5421 31.5824C73.3844 32.0085 73.3056 32.5007 73.3056 33.0589C73.3056 33.6257 73.3844 34.1158 73.5421 34.5291C73.704 34.9382 73.9363 35.2557 74.2388 35.4815C74.5456 35.7031 74.9228 35.8139 75.3702 35.8139Z" fill="#7C7C7C"/>
<circle cx="43.5" cy="5.5" r="5.5" fill="#7C7C7C"/>
</svg>
