<svg width="64" height="49" viewBox="0 0 64 49" fill="none" xmlns="http://www.w3.org/2000/svg">
<path d="M31.9497 27.1891V40.28H29.559L23.8637 32.0406H23.7678V40.28H21.0001V27.1891H23.4291L29.0796 35.422H29.1947V27.1891H31.9497ZM38.6214 40.4717C37.6285 40.4717 36.7698 40.2608 36.0454 39.8389C35.3252 39.4128 34.7691 38.8205 34.377 38.0619C33.985 37.2991 33.789 36.4149 33.789 35.4092C33.789 34.395 33.985 33.5087 34.377 32.7501C34.7691 31.9874 35.3252 31.395 36.0454 30.9731C36.7698 30.547 37.6285 30.3339 38.6214 30.3339C39.6143 30.3339 40.4708 30.547 41.191 30.9731C41.9154 31.395 42.4736 31.9874 42.8657 32.7501C43.2577 33.5087 43.4537 34.395 43.4537 35.4092C43.4537 36.4149 43.2577 37.2991 42.8657 38.0619C42.4736 38.8205 41.9154 39.4128 41.191 39.8389C40.4708 40.2608 39.6143 40.4717 38.6214 40.4717ZM38.6341 38.3624C39.0858 38.3624 39.463 38.2345 39.7655 37.9788C40.0681 37.7189 40.2961 37.3652 40.4495 36.9178C40.6072 36.4703 40.686 35.9611 40.686 35.3901C40.686 34.819 40.6072 34.3098 40.4495 33.8624C40.2961 33.4149 40.0681 33.0612 39.7655 32.8013C39.463 32.5413 39.0858 32.4114 38.6341 32.4114C38.1782 32.4114 37.7947 32.5413 37.4836 32.8013C37.1768 33.0612 36.9445 33.4149 36.7868 33.8624C36.6334 34.3098 36.5567 34.819 36.5567 35.3901C36.5567 35.9611 36.6334 36.4703 36.7868 36.9178C36.9445 37.3652 37.1768 37.7189 37.4836 37.9788C37.7947 38.2345 38.1782 38.3624 38.6341 38.3624Z" fill="#FF000F"/>
<path d="M40.5 2.77981L38.4752 1.5794L23.3258 16.7289L25 18.2798L40.5 2.77981Z" fill="#FF000F"/>
<path d="M38.5157 17.9475L40 16.2798L24.5388 1.61355L23 3.27969L38.5157 17.9475Z" fill="#FF000F"/>
</svg>
