<?xml version="1.0" encoding="UTF-8"?>
<svg id="Layer_2" data-name="Layer 2" xmlns="http://www.w3.org/2000/svg" viewBox="0 0 296.3 107.01">
  <defs>
    <style>
      .cls-1 {
        fill: #024c3f;
        font-family: gGameTC, 'g Game TC';
        font-size: 7.28px;
      }

      .cls-2, .cls-3, .cls-4, .cls-5 {
        stroke-width: 0px;
      }

      .cls-3 {
        fill: #be1e2d;
      }

      .cls-4 {
        fill: #fff;
      }

      .cls-5 {
        fill: #00636b;
      }
    </style>
  </defs>
  <g id="Layer_1-2" data-name="Layer 1">
    <g>
      <path class="cls-4" d="m0,0h296.3v81.95c0,13.83-11.23,25.06-25.06,25.06H0V0h0Z"/>
      <g>
        <g>
          <path class="cls-5" d="m27.94,37.55h14.43c7.87,0,14.43,5.92,14.43,13.39s-6.42,13.55-14.43,13.55h-4.29v11.25h-10.14v-38.19Zm19.07,13.43c0-2.32-1.94-4.07-4.64-4.07h-4.29v8.22l4.29.02c2.72.02,4.64-1.82,4.64-4.17Z"/>
          <path class="cls-5" d="m92.71,37.55v38.19h-10.12v-10.96c0-1.89-1.53-3.42-3.42-3.42h-7.93v14.38h-10.14v-38.19h10.14v10.91c0,1.89,1.53,3.42,3.42,3.42h7.93v-14.33h10.12Z"/>
          <path class="cls-5" d="m152.74,46.98v5.33h12.13v8.46h-12.13v5.47h14.74v9.5h-24.76v-34.77c0-1.89,1.53-3.42,3.42-3.42h21.34v9.43h-14.74Z"/>
          <path class="cls-5" d="m206.11,37.5v35.39c0,1.78-1.44,3.22-3.22,3.22h0l-19.64-19.02v18.67h-10.14v-35.44c0-1.74,1.41-3.15,3.15-3.15h.12l19.57,18.95v-18.62h10.16Z"/>
          <path class="cls-5" d="m212.74,37.55h10.14v38.19s-10.14,0-10.14,0v-38.19Z"/>
          <path class="cls-5" d="m238.23,55.91l-11.47-18.36h11.61l5.85,10.09,3.63-6.29c1.36-2.35,3.87-3.8,6.58-3.8h7.22l-11.51,18.34,12.15,19.85h-11.68l-6.42-11.28-4.21,7.43c-1.35,2.38-3.87,3.85-6.61,3.85h-7.25l12.11-19.83Z"/>
          <g>
            <path class="cls-5" d="m135.61,44.14s-.09.02-.13.03c.14.12.26.22.39.33-.08-.12-.17-.24-.26-.36Zm-8.77,29.36c-.29-.91-.36-1.85-.22-2.8.29-2,.51-4,.46-6.02-.02-.76-.07-1.53-.12-2.29-1.93,2.43-4.97,3.95-8.49,3.95-6.07,0-10.71-4.52-10.71-10.4,0-1.13.17-2.22.49-3.23-.07-.17-.14-.33-.21-.5-.15-.37-.16-.75-.1-1.14,0-.04.02-.08.02-.12,0-.02,0-.03,0-.07-.05.02-.1.04-.15.06,0-.05,0-.09-.01-.13,0-.38.01-.76-.02-1.14-.05-.67.15-1.3.37-1.91.14-.37.3-.74.47-1.09.14-.29.22-.6.25-.92.06-.53.27-1.01.47-1.5.07-.18.15-.36.24-.59.24.75.48,1.46.71,2.19.19-.11.36-.21.54-.32,1.2-.72,2.44-1.31,3.75-1.74.82-.27,1.66-.48,2.52-.63.25-.04.5-.08.75-.1,0,0,.01,0,.02,0,.31-.05.61-.09.92-.12,1.68-.15,3.18-.64,4.55-1.52,0,0,0,0,.01,0,.22-.15.43-.3.64-.45,0,0,0,0,.01-.01.13-.11.27-.25.33-.4.02-.03.02-.07.03-.1,0,0,0,0,0,0-.11-.03-.22-.06-.35-.09-1.63-.37-4.64-.44-9.5.71,1.81-1.97,5.11-4.36,4.59-5.03,0,.01-.02.02-.02.04-.13.24-.24.45-.35.67-.04-.19-.08-.38-.13-.56-.06.12-.13.24-.19.36-.05-.24-.1-.47-.16-.69-3.7.03-7.13.91-10.08,2.45,0,0,0,0,0,0-6.45,3.36-10.68,9.89-10.68,17.71,0,11.37,9.07,20.02,20.94,20.02,3.15,0,6.11-.61,8.75-1.71-.15-.26-.27-.53-.36-.82Zm.78-2.37c-.19.77-.15,1.6-.22,2.28-.09-.17-.17-.35-.23-.53.04.2.1.4.17.6.07.21.18.4.27.6.05-.71-.17-2.15,0-2.95Z"/>
            <path class="cls-3" d="m141.88,33.73c-.51.57-1.01,1.13-1.57,1.75.35.07.73.14,1.11.21.03.05.05.1.08.15-.58.39-1.16.77-1.86,1.24.5.15.92.27,1.4.41-.3.93-1.16,1.16-2.07,1.55.44.27.76.47,1.08.67q-.41.65-2.37,1.1c.41.37.74.67,1.08.98-.52.76-1.4.76-2.23.85-.02.06-.04.11-.06.16.34.3.67.61,1.12,1.02-.66.12-1.27.24-1.99.38-.04,0-.09.02-.13.03.14.12.26.22.39.33.14.19.27.39.4.59h-1.84c-.03.06-.06.11-.1.17.25.32.51.65.79,1.01-.73.42-1.48.31-2.24-.06-.04.05-.09.1-.13.15.37.45.74.91,1.12,1.37-1.02.49-1.94-.03-3.02-.28.29.51.58,1.03.9,1.59-.99.17-1.96.02-2.98-.35.24.39.47.77.82,1.34-.7-.16-1.23-.29-1.76-.41-.04.04-.09.09-.13.13.96,1.04,1.9,2.08,2.87,3.1,1.02,1.08,2.1,2.1,3.07,3.22.42.48.62,1.13.95,1.75-1.04-1.04-2.01-2.02-2.99-2.99-.06.05-.13.09-.19.14.08.16.14.33.24.48,1.63,2.44,2.41,5.16,2.75,8.06.19,1.59.53,3.17.84,4.74,0,0,0,.01,0,.02h0c.03.15.06.31.09.46.06.31.28.59.45.95-.41-.23-.73-.52-.96-.87,0,0,0,0,0-.01,0,0,0,0,.02-.02h0s0,0-.01.02c-.15-.23-.27-.48-.34-.74-.4-1.38-.71-2.79-1.02-4.2-.31-1.39-.65-2.78-1.41-4.01-.12-.19-.26-.36-.44-.59-.02.14-.06.2-.04.25.99,2.27,1.12,4.67,1.12,7.1,0,1.29.11,2.6.36,3.87,0,.04.02.09.03.13.24,1.13.83,2.14,1.72,2.95.16.14.29.32.38.53-1.11-.45-1.89-1.26-2.49-2.25-.12-.2-.23-.4-.32-.6-.55-1.13-.79-2.35-.9-3.63-.14-1.62-.47-3.22-.73-4.82-.03-.18-.11-.35-.18-.52-.02-.05-.08-.08-.21-.21.04.37.1.64.09.91-.02,2.35-.01,4.7-.09,7.05-.03.91-.07,1.82-.05,2.72h0c.03,1.62.25,3.21,1.04,4.73-1.13-1.01-1.77-2.3-1.92-3.76-.01-.14-.03-.28-.04-.42h0c-.11-1.4-.11-2.81-.09-4.21.03-2.71-.05-5.41-.62-8.08-.03-.14-.06-.28-.11-.42-.02-.05-.07-.09-.2-.23.04.51.06.9.1,1.3.3,3.18.09,6.3-.78,9.39,0,.03-.02.06-.02.1-.18.82.06,2.33,0,3.02-.5-.77-.65-1.77-.64-2.67,0-.06,0-.11,0-.17,0-.07,0-.15,0-.22,0-.09.01-.18.02-.27,0-.02,0-.04,0-.06,0-.07.02-.13.02-.2,0-.06.02-.13.03-.2.36-2.25.5-4.51.39-6.79-.03-.57-.06-1.14-.09-1.71h0c-.11-1.71-.29-3.41-.74-5.1.44.53.89,1.07,1.33,1.6.03-.02.06-.03.09-.04-.05-.13-.08-.28-.14-.4-1.02-1.81-2.44-3.14-4.47-3.79-1.3-.42-2.6-.86-3.57-1.89-1.01-1.08-1.68-2.38-2.35-3.79.31.04.51.07.78.1-2.63-1.93-8.74-.56-9.7,3.76-.04-.09-.07-.17-.1-.25-.19-.53-.11-.97.36-2.33-.17.11-.28.19-.55.37,0-.44-.06-.77.01-1.07.11-.5.28-.99.46-1.47.15-.39.39-.74.5-1.13.1-.39.09-.81.28-1.28.16.49.32.98.48,1.5.53-.32,1.09-.67,1.66-.98,2.27-1.26,4.7-2.02,7.3-2.17,1.92-.11,3.6-.86,5.12-1.98.71-.53,1.46-1.04,2.08-1.67.63-.64,1.28-1.26,1.94-1.88,1.85-1.75,3.73-3.48,5.24-5.56,2.31-3.18,3.66-6.65,3.28-10.64-.07-.74-.22-1.46-.35-2.32,2.07,2.66,2.38,5.49,1.44,8.55.06.02.12.05.18.08.41-.64.86-1.25,1.21-1.92.36-.67.62-1.38.96-2.14.39,1.91.08,3.66-.83,5.32.05.04.09.07.13.11.77-.53,1.53-1.06,2.29-1.59.11,1.04-.55,2.34-2,4.12.39-.17.79-.33,1.17-.52.39-.19.75-.42,1.22-.69-.26,1.3-.83,2.28-1.91,3.05.26-.03.53-.05.79-.1.28-.05.55-.13.83-.2.04.04.08.09.12.13Z"/>
            <path class="cls-3" d="m115.41,34.54c.18-.37.38-.77.59-1.21.73.51.87,1.3,1.07,2.27.29-.4.5-.69.73-1.01.43.4.63.91.78,1.47.01.04.02.09.03.13.04.18.08.37.13.56.12-.22.23-.44.35-.67,0-.01.01-.02.02-.04.15-.28.31-.59.5-.95.23.73.43,1.34.65,2.04.26-.34.52-.7.86-1.14.17.62.33,1.2.51,1.89.32-.39.6-.74.98-1.21.1.86.18,1.61.28,2.49.35-.42.67-.79,1.02-1.21.32.8.6,1.62.45,2.5,0,0,0,0,0,0,0,.03-.02.07-.03.1-.06.14-.2.29-.33.4,0,0,0,0-.01.01-.02.02-.04.03-.06.05-.19.14-.38.28-.58.4,0,0,0,0-.01,0-1.37.88-2.87,1.37-4.55,1.52-.31.03-.61.07-.92.12,0,0-.01,0-.02,0-1.08.18-2.16.48-3.24.73-.01,0-.02,0-.03,0-.15.03-.28.06-.39.04-.1-.02-.19-.07-.28-.19-.01-.01-.02-.03-.03-.04-.03-.04-.06-.09-.1-.13-.42-.56-.86-1.09-1.31-1.59-1.21-1.32-2.54-2.44-3.98-3.37-.1-.07-.21-.13-.31-.2-2.59-1.62-5.5-2.69-8.66-3.37-.88-.19-1.78-.34-2.66-.54,2.71-.39,5.4-.36,8.03.58.02-.05.05-.1.07-.16-.93-.62-1.87-1.24-2.8-1.87,1.09-.28,2.87.22,5.25,1.36-.53-.64-1.03-1.24-1.57-1.88,0,0-.1-.09-.08-.13.61.24,1.34.42,1.92.7.57.28,1.1.64,1.76.9-.35-.67-.71-1.34-1.08-2.05,1.15.22,2.13.74,3.08,1.66v-1.53c.93.2,1.45.8,1.92,1.64.21-.51.37-.92.54-1.33"/>
            <path class="cls-2" d="m134.82,68.85s0,0-.02.02c0,0,0-.01.01-.02h0Z"/>
            <path class="cls-2" d="m134.82,68.85s0,0-.02.02c0,0,0-.01.01-.02h0Z"/>
          </g>
        </g>
        <text class="cls-1" transform="translate(27.94 85.89)"><tspan x="0" y="0">Pioneering Hub for Outreach, Notification, and Instant Xchanges</tspan></text>
      </g>
    </g>
  </g>
</svg>