<?xml version="1.0" encoding="UTF-8"?>
<svg id="Layer_2" data-name="Layer 2" xmlns="http://www.w3.org/2000/svg" viewBox="0 0 367.55 446.97">
  <defs>
    <style>
      .cls-1 {
        fill: #e6e7e8;
        stroke-width: 0px;
      }
    </style>
  </defs>
  <g id="Layer_1-2" data-name="Layer 1">
    <g>
      <path class="cls-1" d="m18.07,144.23c5.78,2.69,11.56,5.38,17.9,8.33-2.47,1.69-5.18,3.5-7.88,5.34-.04.47-.08.94-.14,1.41,5.75,1.05,11.5,2.1,18.44,3.37-3.38,2.81-6.18,5.14-9.41,7.84,5.42,6.13,12.85,5.12,21.12,5.12-2.48,3.53-4.3,6.12-6.12,8.71q5.35,3.62,21.97.64c-1.91,4.24-3.45,7.62-5.05,11.16,6.54,4.17,13.28,1.2,20.04-.86.34.36.66.69,1,1.03-1.59,3.45-3.16,6.9-5.3,11.58,5.51-1.24,10.6-2.37,16.63-3.72.37-.07.75-.16,1.13-.24-.67,1.35-1.28,2.59-1.92,3.86-.43,1.96-.8,3.91-1.12,5.87l14.17-6.1c.43.32.86.64,1.31.95-.88,3.33-1.75,6.66-2.73,10.4,7.05.79,12.46-2.55,17.07-7.89.51.25,1.01.5,1.52.74-1.34,4.73-2.67,9.45-4.05,14.29,9.53.38,14.86-6.66,22.35-12.17-.55,4.94-1.08,9.88-1.66,15.27,8.24-1.97,15.15-6.35,21.84-12.56-.54,3.76-1.07,7.52-1.89,13.08,4.83-3.56,8.53-6.3,12.22-9.03.48.19.96.4,1.44.6-3.95,11.17-7.78,22.37-11.84,33.48-4.27,11.71-9.2,23.19-12.99,35.04-1.63,5.06-1.05,10.81-1.51,16.68,4.54-11.46,8.83-22.23,13.12-33.03.64.14,1.29.3,1.96.43-.08,1.51.03,3.05-.26,4.52-4.46,24.26-1.46,47.83,5.55,71.31,3.84,12.91,6.44,26.17,9.26,39.36,0,.05.02.09.03.14h0c.26,1.29.54,2.56.81,3.84.57,2.61-.16,5.49-.31,8.8,2.39-3.12,3.89-6.47,4.54-9.88.02-.04.01-.09.03-.13-.06-.03-.1-.04-.17-.07v-.02c.06.03.1.06.17.09.42-2.26.48-4.55.2-6.81-1.47-11.98-3.8-23.89-6.03-35.77-2.21-11.79-4.23-23.56-2.39-35.59.29-1.83.83-3.61,1.41-6.05.66,1.02,1.13,1.37,1.14,1.75-.08,20.81,6.9,39.72,14.9,58.53,4.25,9.99,7.75,20.43,10.1,31.01.09.36.15.72.21,1.09,1.88,9.53.7,19.28-3.47,28.44-.74,1.62-1.16,3.4-1.17,5.32,7.07-7.14,10.43-16.01,11.75-25.66.27-1.92.44-3.82.52-5.7.48-10.56-1.71-20.77-5.09-31.04-4.28-12.93-7.06-26.37-10.41-39.61-.37-1.47-.29-3.09-.31-4.64,0-.45.35-.92.96-2.33.92,2.99,1.39,5.26,2.3,7.33,7.96,18.06,15.72,36.24,24.1,54.1,3.25,6.94,6.57,13.82,9.41,20.85h0c5.12,12.6,8.71,25.58,7.71,39.92,5.34-11.57,6.03-23.65,2.34-35.37-.36-1.13-.72-2.24-1.11-3.38h0c-3.76-11.17-8.5-22.03-13.28-32.8-9.26-20.83-17.59-41.91-22-64.37-.23-1.19-.45-2.38-.54-3.59-.04-.45.26-.93.74-2.44,1.37,4.03,2.5,7.19,3.54,10.36,8.25,25.5,20.24,48.92,37.18,69.84.18.22.35.44.52.68,4.09,5.76,7.28,18.13,10.07,23.24,1.31-7.62-.82-15.8-3.9-22.71-.18-.42-.37-.85-.58-1.26-.26-.57-.53-1.11-.8-1.65-.35-.68-.7-1.35-1.05-2-.1-.15-.18-.3-.27-.46-.27-.51-.57-.99-.84-1.46-.29-.47-.58-.95-.87-1.42-10.22-16.21-18.87-33.16-25.58-51.08-1.69-4.49-3.35-8.98-4.95-13.49h0c-4.82-13.56-9.05-27.3-11.2-41.79-1.64,5.59-3.29,11.2-4.94,16.79-.3,0-.58-.01-.86-.01-.08-1.18-.33-2.38-.2-3.54,1.89-17.37,8.42-32.36,21.87-44.09,8.61-7.53,17.18-15.21,21.25-26.47,4.23-11.72,5.03-23.92,5.57-37-2.23,1.32-3.75,2.22-5.7,3.38,13.86-23.62,65.53-33.35,87.32-3.22.02-.81.02-1.54-.03-2.25-.3-4.7-2.39-7.81-10.48-16.79,1.63.29,2.8.5,5.47,1-1.48-3.43-2.14-6.13-3.65-8.23-2.52-3.48-5.47-6.7-8.46-9.81-2.41-2.49-5.48-4.38-7.61-7.06-2.1-2.66-3.38-5.95-6.37-8.94.4,4.33.81,8.63,1.24,13.14-5.14-.67-10.58-1.54-16.05-2.09-21.72-2.14-42.96,0-63.52,7.53-15.2,5.57-30.62,5.36-46.1,1.72-7.25-1.71-14.68-3.19-21.55-5.96-7-2.82-14.09-5.44-21.18-8.03-20.1-7.35-40.3-14.48-58.87-25.5-28.36-16.84-50.27-39.14-60.61-71.24-1.91-5.9-3.19-12.02-5.03-19.08-7.13,27.36-.16,50.28,17.27,70.73-.37.39-.76.78-1.14,1.19-5.27-3.55-10.78-6.79-15.73-10.74-4.96-3.94-9.38-8.59-14.49-13.36,3.31,16.04,11.51,28.49,24.11,38.29-.23.43-.45.85-.68,1.28-7.68-1.54-15.36-3.1-22.97-4.64,2.64,8.4,11.98,16.2,29.13,25.13-3.59-.02-7.19.09-10.76-.13-3.62-.21-7.2-.78-11.67-1.28,6.31,9.2,14.01,14.84,24.83,17.2-2.12.64-4.23,1.39-6.38,1.88-2.33.53-4.7.82-7.04,1.24-.16.47-.33.94-.49,1.39Z"/>
      <path class="cls-1" d="m224.98,62.58c-2.63-2.27-5.45-4.67-8.6-7.35-3.96,6.38-2.42,12.94-.75,21.07-3.53-2.11-6.15-3.68-9.02-5.38-1.98,4.55-1.85,9.1-1.09,13.93.06.37.11.75.19,1.12.26,1.54.58,3.12.89,4.73-1.61-1.29-3.2-2.6-4.95-4-.09-.08-.18-.15-.29-.22-2.07-1.66-4.35-3.49-7.01-5.63.63,6.4,1.15,11.75,1.75,17.92-3.11-1.79-6.37-3.65-10.4-5.96.75,5.33,1.46,10.33,2.3,16.28-3.77-1.97-7.04-3.69-11.6-6.09,2.12,6.98,3.94,12.99,6.09,20.12-4.09-2.04-7.76-3.89-11.93-5.97.22,7.2.76,14.44,4.83,20.8.02,0,.03.04.04.05.15.23.34.46.56.66.95.91,2.49,1.54,3.88,1.95.04.02.1.03.14.04.21.05.41.1.61.16,1.94.47,3.88.87,5.81,1.2.04,0,.09.01.13.03,13.48,2.22,26.71,1.01,40.13-3.39,2.46-.82,4.96-1.51,7.49-2.13.04-.02.11-.03.15-.05,8.98-2.2,18.27-3.45,27.39-5.14.09-.02.19-.05.27-.06,1.29-.24,2.34-.45,3.16-1.01.68-.47,1.19-1.19,1.52-2.37.04-.14.09-.28.12-.42.11-.43.2-.87.31-1.3,1.37-5.73,3-11.28,4.86-16.65,4.92-14.21,11.5-27.24,19.5-39.23.58-.87,1.16-1.73,1.76-2.57,14.56-21.1,33.53-39.03,55.58-54.73,6.18-4.41,12.59-8.49,18.75-12.99-22.21,6.03-42.84,15.14-60,31.1-.35-.33-.7-.65-1.05-.99,5.13-7.89,10.26-15.8,15.4-23.71-9.33,1.45-21.43,11.2-35.96,27.95,1.98-6.69,3.84-13.03,5.83-19.72,0,0,.45-1.02.17-1.25-3.91,3.84-8.94,7.64-12.5,11.77-3.49,4.04-6.38,8.58-10.6,12.83.49-6.36.99-12.71,1.51-19.41-8.14,5.54-13.99,12.82-18.27,23.02l-5.08-11.81c-6.51,4.62-8.54,10.99-9.35,19.04-3.29-3.24-5.94-5.85-8.59-8.5"/>
    </g>
  </g>
</svg>