<?xml version="1.0" encoding="UTF-8"?>
<svg id="Layer_2" data-name="Layer 2" xmlns="http://www.w3.org/2000/svg" viewBox="0 0 494.01 446.97">
  <defs>
    <style>
      .cls-1, .cls-2, .cls-3, .cls-4 {
        stroke-width: 0px;
      }

      .cls-5 {
        fill: #024c3f;
        font-family: gGameTC, 'g Game TC';
        font-size: 15.35px;
      }

      .cls-2 {
        fill: #be1e2d;
      }

      .cls-3 {
        fill: #e6e7e8;
      }

      .cls-4 {
        fill: #00636b;
      }
    </style>
  </defs>
  <g id="Layer_1-2" data-name="Layer 1">
    <g>
      <path class="cls-3" d="m79.28,144.23c5.78,2.69,11.56,5.38,17.9,8.33-2.47,1.69-5.18,3.5-7.88,5.34-.04.47-.08.94-.14,1.41,5.75,1.05,11.5,2.1,18.44,3.37-3.38,2.81-6.18,5.14-9.41,7.84,5.42,6.13,12.85,5.12,21.12,5.12-2.48,3.53-4.3,6.12-6.12,8.71q5.35,3.62,21.97.64c-1.91,4.24-3.45,7.62-5.05,11.16,6.54,4.17,13.28,1.2,20.04-.86.34.36.66.69,1,1.03-1.59,3.45-3.16,6.9-5.3,11.58,5.51-1.24,10.6-2.37,16.63-3.72.37-.07.75-.16,1.13-.24-.67,1.35-1.28,2.59-1.92,3.86-.43,1.96-.8,3.91-1.12,5.87l14.17-6.1c.43.32.86.64,1.31.95-.88,3.33-1.75,6.66-2.73,10.4,7.05.79,12.46-2.55,17.07-7.89.51.25,1.01.5,1.52.74-1.34,4.73-2.67,9.45-4.05,14.29,9.53.38,14.86-6.66,22.35-12.17-.55,4.94-1.08,9.88-1.66,15.27,8.24-1.97,15.15-6.35,21.84-12.56-.54,3.76-1.07,7.52-1.89,13.08,4.83-3.56,8.53-6.3,12.22-9.03.48.19.96.4,1.44.6-3.95,11.17-7.78,22.37-11.84,33.48-4.27,11.71-9.2,23.19-12.99,35.04-1.63,5.06-1.05,10.81-1.51,16.68,4.54-11.46,8.83-22.23,13.12-33.03.64.14,1.29.3,1.96.43-.08,1.51.03,3.05-.26,4.52-4.46,24.26-1.46,47.83,5.55,71.31,3.84,12.91,6.44,26.17,9.26,39.36,0,.05.02.09.03.14h0c.26,1.29.54,2.56.81,3.84.57,2.61-.16,5.49-.31,8.8,2.39-3.12,3.89-6.47,4.54-9.88.02-.04.01-.09.03-.13-.06-.03-.1-.04-.17-.07v-.02c.06.03.1.06.17.09.42-2.26.48-4.55.2-6.81-1.47-11.98-3.8-23.89-6.03-35.77-2.21-11.79-4.23-23.56-2.39-35.59.29-1.83.83-3.61,1.41-6.05.66,1.02,1.13,1.37,1.14,1.75-.08,20.81,6.9,39.72,14.9,58.53,4.25,9.99,7.75,20.43,10.1,31.01.09.36.15.72.21,1.09,1.88,9.53.7,19.28-3.47,28.44-.74,1.62-1.16,3.4-1.17,5.32,7.07-7.14,10.43-16.01,11.75-25.66.27-1.92.44-3.82.52-5.7.48-10.56-1.71-20.77-5.09-31.04-4.28-12.93-7.06-26.37-10.41-39.61-.37-1.47-.29-3.09-.31-4.64,0-.45.35-.92.96-2.33.92,2.99,1.39,5.26,2.3,7.33,7.96,18.06,15.72,36.24,24.1,54.1,3.25,6.94,6.57,13.82,9.41,20.85h0c5.12,12.6,8.71,25.58,7.71,39.92,5.34-11.57,6.03-23.65,2.34-35.37-.36-1.13-.72-2.24-1.11-3.38h0c-3.76-11.17-8.5-22.03-13.28-32.8-9.26-20.83-17.59-41.91-22-64.37-.23-1.19-.45-2.38-.54-3.59-.04-.45.26-.93.74-2.44,1.37,4.03,2.5,7.19,3.54,10.36,8.25,25.5,20.24,48.92,37.18,69.84.18.22.35.44.52.68,4.09,5.76,7.28,18.13,10.07,23.24,1.31-7.62-.82-15.8-3.9-22.71-.18-.42-.37-.85-.58-1.26-.26-.57-.53-1.11-.8-1.65-.35-.68-.7-1.35-1.05-2-.1-.15-.18-.3-.27-.46-.27-.51-.57-.99-.84-1.46-.29-.47-.58-.95-.87-1.42-10.22-16.21-18.87-33.16-25.58-51.08-1.69-4.49-3.35-8.98-4.95-13.49h0c-4.82-13.56-9.05-27.3-11.2-41.79-1.64,5.59-3.29,11.2-4.94,16.79-.3,0-.58-.01-.86-.01-.08-1.18-.33-2.38-.2-3.54,1.89-17.37,8.42-32.36,21.87-44.09,8.61-7.53,17.18-15.21,21.25-26.47,4.23-11.72,5.03-23.92,5.57-37-2.23,1.32-3.75,2.22-5.7,3.38,13.86-23.62,65.53-33.35,87.32-3.22.02-.81.02-1.54-.03-2.25-.3-4.7-2.39-7.81-10.48-16.79,1.63.29,2.8.5,5.47,1-1.48-3.43-2.14-6.13-3.65-8.23-2.52-3.48-5.47-6.7-8.46-9.81-2.41-2.49-5.48-4.38-7.61-7.06-2.1-2.66-3.38-5.95-6.37-8.94.4,4.33.81,8.63,1.24,13.14-5.14-.67-10.58-1.54-16.05-2.09-21.72-2.14-42.96,0-63.52,7.53-15.2,5.57-30.62,5.36-46.1,1.72-7.25-1.71-14.68-3.19-21.55-5.96-7-2.82-14.09-5.44-21.18-8.03-20.1-7.35-40.3-14.48-58.87-25.5-28.36-16.84-50.27-39.14-60.61-71.24-1.91-5.9-3.19-12.02-5.03-19.08-7.13,27.36-.16,50.28,17.27,70.73-.37.39-.76.78-1.14,1.19-5.27-3.55-10.78-6.79-15.73-10.74-4.96-3.94-9.38-8.59-14.49-13.36,3.31,16.04,11.51,28.49,24.11,38.29-.23.43-.45.85-.68,1.28-7.68-1.54-15.36-3.1-22.97-4.64,2.64,8.4,11.98,16.2,29.13,25.13-3.59-.02-7.19.09-10.76-.13-3.62-.21-7.2-.78-11.67-1.28,6.31,9.2,14.01,14.84,24.83,17.2-2.12.64-4.23,1.39-6.38,1.88-2.33.53-4.7.82-7.04,1.24-.16.47-.33.94-.49,1.39Z"/>
      <path class="cls-3" d="m286.2,62.58c-2.63-2.27-5.45-4.67-8.6-7.35-3.96,6.38-2.42,12.94-.75,21.07-3.53-2.11-6.15-3.68-9.02-5.38-1.98,4.55-1.85,9.1-1.09,13.93.06.37.11.75.19,1.12.26,1.54.58,3.12.89,4.73-1.61-1.29-3.2-2.6-4.95-4-.09-.08-.18-.15-.29-.22-2.07-1.66-4.35-3.49-7.01-5.63.63,6.4,1.15,11.75,1.75,17.92-3.11-1.79-6.37-3.65-10.4-5.96.75,5.33,1.46,10.33,2.3,16.28-3.77-1.97-7.04-3.69-11.6-6.09,2.12,6.98,3.94,12.99,6.09,20.12-4.09-2.04-7.76-3.89-11.93-5.97.22,7.2.76,14.44,4.83,20.8.02,0,.03.04.04.05.15.23.34.46.56.66.95.91,2.49,1.54,3.88,1.95.04.02.1.03.14.04.21.05.41.1.61.16,1.94.47,3.88.87,5.81,1.2.04,0,.09.01.13.03,13.48,2.22,26.71,1.01,40.13-3.39,2.46-.82,4.96-1.51,7.49-2.13.04-.02.11-.03.15-.05,8.98-2.2,18.27-3.45,27.39-5.14.09-.02.19-.05.27-.06,1.29-.24,2.34-.45,3.16-1.01.68-.47,1.19-1.19,1.52-2.37.04-.14.09-.28.12-.42.11-.43.2-.87.31-1.3,1.37-5.73,3-11.28,4.86-16.65,4.92-14.21,11.5-27.24,19.5-39.23.58-.87,1.16-1.73,1.76-2.57,14.56-21.1,33.53-39.03,55.58-54.73,6.18-4.41,12.59-8.49,18.75-12.99-22.21,6.03-42.84,15.14-60,31.1-.35-.33-.7-.65-1.05-.99,5.13-7.89,10.26-15.8,15.4-23.71-9.33,1.45-21.43,11.2-35.96,27.95,1.98-6.69,3.84-13.03,5.83-19.72,0,0,.45-1.02.17-1.25-3.91,3.84-8.94,7.64-12.5,11.77-3.49,4.04-6.38,8.58-10.6,12.83.49-6.36.99-12.71,1.51-19.41-8.14,5.54-13.99,12.82-18.27,23.02l-5.08-11.81c-6.51,4.62-8.54,10.99-9.35,19.04-3.29-3.24-5.94-5.85-8.59-8.5"/>
    </g>
    <g>
      <g>
        <path class="cls-4" d="m0,217.29h30.41c16.58,0,30.41,12.48,30.41,28.22s-13.53,28.56-30.41,28.56h-9.04v23.72H0v-80.5Zm40.2,28.32c0-4.89-4.09-8.59-9.79-8.59h-9.04v17.33l9.04.05c5.74.05,9.79-3.85,9.79-8.79Z"/>
        <path class="cls-4" d="m136.53,217.29v80.5h-21.32v-23.1c0-3.98-3.23-7.21-7.21-7.21h-16.71v30.31h-21.37v-80.5h21.37v23c0,3.98,3.23,7.21,7.21,7.21h16.71v-30.21h21.32Z"/>
        <path class="cls-4" d="m263.06,237.17v11.24h25.57v17.83h-25.57v11.54h31.06v20.03h-52.19v-73.29c0-3.98,3.23-7.21,7.21-7.21h44.98v19.88h-31.06Z"/>
        <path class="cls-4" d="m375.57,217.19v74.61c0,3.75-3.04,6.79-6.79,6.79h0l-41.4-40.1v39.35h-21.37v-74.7c0-3.67,2.98-6.65,6.65-6.65h.24l41.25,39.95v-39.25h21.42Z"/>
        <path class="cls-4" d="m389.55,217.29h21.37v80.5s-21.37,0-21.37,0v-80.5Z"/>
        <path class="cls-4" d="m443.27,256l-24.17-38.7h24.47l12.33,21.27,7.66-13.26c2.86-4.96,8.15-8.01,13.87-8.01h15.22l-24.27,38.65,25.62,41.85h-24.62l-13.53-23.77-8.88,15.65c-2.85,5.02-8.17,8.12-13.94,8.12h-15.29l25.52-41.8Z"/>
        <g>
          <path class="cls-4" d="m226.95,231.19c-.09.02-.19.04-.28.06.29.24.55.47.83.7-.17-.26-.36-.51-.54-.76Zm-18.48,61.89c-.61-1.93-.75-3.91-.46-5.89.62-4.21,1.07-8.42.98-12.68-.04-1.61-.15-3.22-.25-4.83-4.07,5.11-10.48,8.32-17.9,8.32-12.79,0-22.57-9.54-22.57-21.92,0-2.39.36-4.67,1.04-6.81-.16-.35-.3-.7-.45-1.06-.32-.77-.34-1.59-.2-2.4.02-.08.03-.17.04-.26,0-.04,0-.07,0-.15-.11.04-.2.08-.32.12,0-.11-.02-.19-.02-.27,0-.81.02-1.61-.03-2.41-.1-1.42.31-2.74.79-4.03.29-.79.63-1.55.99-2.31.3-.62.46-1.27.54-1.95.12-1.12.58-2.13.99-3.16.16-.38.31-.77.5-1.23.51,1.59,1,3.09,1.5,4.62.4-.24.77-.45,1.13-.67,2.52-1.51,5.15-2.76,7.89-3.67,1.72-.57,3.49-1.02,5.31-1.33.52-.09,1.05-.16,1.58-.22.01,0,.03,0,.04,0,.64-.11,1.29-.2,1.94-.25,3.53-.32,6.7-1.35,9.59-3.2,0,0,.02-.02.03-.02.46-.31.91-.62,1.35-.95,0,0,.02-.02.03-.02.28-.23.57-.53.7-.83.03-.07.05-.14.06-.21,0,0,0-.01,0-.02-.23-.06-.47-.13-.73-.19-3.43-.79-9.77-.94-20.03,1.5,3.81-4.15,10.77-9.2,9.67-10.6-.02.03-.03.05-.04.08-.26.5-.5.96-.74,1.41-.09-.4-.17-.8-.26-1.18-.13.26-.26.51-.4.77-.11-.5-.21-.99-.33-1.45-7.8.06-15.02,1.91-21.25,5.16,0,0,0,0,0,0-13.6,7.09-22.51,20.85-22.51,37.33,0,23.97,19.13,42.2,44.15,42.2,6.64,0,12.88-1.28,18.44-3.61-.31-.55-.57-1.12-.77-1.73Zm1.63-4.99c-.41,1.62-.32,3.36-.46,4.81-.19-.36-.35-.74-.48-1.13.09.42.21.85.36,1.27.15.43.37.85.57,1.27.1-1.51-.36-4.54,0-6.22Z"/>
          <path class="cls-2" d="m240.19,209.24c-1.07,1.19-2.13,2.39-3.3,3.7.74.14,1.54.29,2.35.45.06.1.11.21.17.31-1.22.81-2.44,1.63-3.92,2.61,1.06.31,1.93.57,2.95.87-.64,1.95-2.46,2.46-4.36,3.28.92.57,1.6.99,2.28,1.4q-.87,1.37-5,2.33c.86.79,1.55,1.41,2.27,2.07-1.09,1.61-2.94,1.59-4.71,1.79-.04.12-.08.22-.13.34.71.64,1.41,1.28,2.37,2.14-1.39.26-2.68.5-4.2.79-.09.02-.19.04-.28.06.29.24.55.47.83.7.29.41.57.82.84,1.24h-3.87c-.07.12-.14.23-.21.35.53.68,1.07,1.36,1.66,2.13-1.55.88-3.12.65-4.72-.12-.09.11-.18.22-.28.32.78.96,1.55,1.91,2.35,2.89-2.16,1.03-4.09-.06-6.36-.59.62,1.09,1.23,2.17,1.9,3.36-2.09.36-4.12.04-6.28-.73.5.81.99,1.63,1.73,2.83-1.47-.34-2.59-.6-3.71-.87-.09.09-.18.19-.27.28,2.02,2.18,4.01,4.39,6.05,6.54,2.15,2.28,4.42,4.43,6.47,6.79.88,1.01,1.31,2.39,2,3.7-2.18-2.19-4.24-4.25-6.3-6.31-.13.1-.27.2-.41.29.17.34.3.7.51,1.02,3.44,5.15,5.08,10.88,5.8,16.99.4,3.36,1.11,6.67,1.77,9.99,0,.01,0,.02,0,.04h0c.07.32.13.64.19.97.13.66.58,1.25.95,2-.86-.48-1.54-1.11-2.03-1.83,0,0-.01-.02-.02-.03.01-.01.02-.02.03-.03h0s-.02.02-.03.03c-.32-.48-.56-1-.72-1.55-.85-2.91-1.49-5.88-2.16-8.84-.66-2.94-1.36-5.85-2.98-8.44-.25-.39-.55-.75-.93-1.25-.05.3-.12.43-.09.52,2.08,4.79,2.35,9.84,2.37,14.97.01,2.72.24,5.48.75,8.15.02.09.04.18.06.27.51,2.38,1.75,4.51,3.62,6.21.33.3.6.67.8,1.11-2.34-.95-3.99-2.66-5.25-4.75-.25-.42-.48-.84-.68-1.26-1.16-2.39-1.67-4.96-1.91-7.66-.3-3.4-.99-6.78-1.53-10.17-.06-.38-.24-.74-.39-1.1-.04-.1-.17-.18-.45-.44.08.78.2,1.35.2,1.92-.04,4.95-.03,9.91-.19,14.86-.06,1.92-.14,3.84-.1,5.74h0c.07,3.41.53,6.76,2.18,9.97-2.38-2.14-3.74-4.85-4.05-7.92-.03-.3-.06-.59-.08-.89h0c-.24-2.95-.22-5.92-.19-8.88.07-5.72-.1-11.41-1.31-17.02-.06-.3-.13-.59-.23-.88-.04-.11-.15-.19-.41-.49.08,1.07.14,1.91.21,2.74.63,6.7.19,13.29-1.64,19.79-.02.07-.04.14-.05.21-.37,1.73.12,4.9-.02,6.36-1.06-1.63-1.38-3.72-1.35-5.62,0-.12,0-.23,0-.35,0-.16.01-.31.02-.46.01-.19.03-.38.04-.56,0-.04.01-.09.02-.13.01-.14.03-.28.05-.42.02-.14.04-.28.06-.41.75-4.75,1.06-9.52.83-14.32-.06-1.2-.12-2.4-.2-3.6h0c-.23-3.6-.62-7.19-1.56-10.75.93,1.13,1.87,2.26,2.8,3.38.07-.03.13-.06.2-.09-.1-.28-.16-.58-.3-.84-2.16-3.82-5.15-6.62-9.42-7.99-2.73-.88-5.47-1.8-7.53-3.99-2.14-2.28-3.53-5.01-4.95-7.98.64.08,1.09.14,1.65.21-5.54-4.07-18.42-1.19-20.45,7.92-.08-.18-.16-.35-.22-.52-.4-1.11-.22-2.04.75-4.91-.35.23-.6.39-1.16.77,0-.94-.12-1.63.02-2.26.24-1.05.6-2.09.98-3.1.31-.81.83-1.55,1.05-2.38.22-.82.19-1.71.58-2.69.34,1.04.67,2.07,1.02,3.15,1.12-.66,2.29-1.41,3.49-2.07,4.79-2.65,9.91-4.26,15.39-4.57,4.06-.22,7.59-1.8,10.8-4.18,1.5-1.11,3.07-2.19,4.38-3.51,1.33-1.35,2.71-2.65,4.09-3.95,3.91-3.69,7.85-7.34,11.04-11.72,4.87-6.7,7.71-14.01,6.91-22.44-.14-1.55-.46-3.09-.73-4.9,4.36,5.6,5.03,11.58,3.04,18.02.12.05.25.1.38.16.86-1.34,1.81-2.64,2.56-4.04.75-1.4,1.31-2.91,2.01-4.52.83,4.03.17,7.71-1.76,11.22.1.08.19.15.28.23,1.62-1.12,3.23-2.24,4.83-3.35.22,2.2-1.15,4.92-4.22,8.68.83-.36,1.67-.69,2.47-1.1.81-.41,1.58-.89,2.56-1.45-.54,2.75-1.76,4.81-4.02,6.43.55-.06,1.11-.1,1.66-.2.59-.11,1.17-.28,1.75-.41.08.09.17.18.25.27Z"/>
          <path class="cls-2" d="m184.38,210.94c.38-.79.79-1.62,1.25-2.55,1.55,1.08,1.84,2.74,2.26,4.78.6-.84,1.05-1.46,1.55-2.13.91.85,1.33,1.91,1.63,3.1.02.09.05.18.07.28.09.38.18.78.26,1.18.24-.46.48-.92.74-1.41.01-.03.03-.05.04-.08.31-.59.66-1.24,1.06-1.99.49,1.54.9,2.82,1.37,4.31.54-.72,1.11-1.47,1.81-2.41.36,1.3.69,2.53,1.09,3.98.67-.83,1.26-1.55,2.07-2.56.2,1.82.38,3.38.59,5.24.74-.88,1.4-1.67,2.16-2.56.66,1.68,1.26,3.4.95,5.28,0,0,0,.01,0,.02-.01.07-.03.14-.06.21-.13.3-.42.6-.7.83,0,0-.02.02-.03.02-.04.03-.08.06-.12.1-.4.3-.81.58-1.22.85,0,0-.02.01-.03.02-2.89,1.85-6.06,2.88-9.59,3.2-.65.06-1.29.14-1.94.25-.01,0-.03,0-.04,0-2.29.38-4.55,1.02-6.83,1.53-.02,0-.05,0-.07.01-.32.07-.58.13-.83.08-.2-.04-.39-.16-.58-.4-.02-.03-.05-.06-.07-.08-.07-.09-.13-.18-.2-.27-.89-1.19-1.81-2.3-2.77-3.36-2.54-2.79-5.36-5.14-8.39-7.11-.22-.14-.44-.28-.66-.42-5.45-3.42-11.6-5.67-18.24-7.1-1.86-.4-3.74-.71-5.61-1.13,5.72-.81,11.38-.76,16.92,1.22.05-.11.1-.22.14-.33-1.97-1.31-3.93-2.62-5.9-3.94,2.3-.59,6.05.46,11.06,2.88-1.12-1.35-2.18-2.62-3.3-3.97,0,0-.2-.19-.16-.27,1.28.5,2.82.88,4.05,1.47,1.21.58,2.32,1.35,3.72,1.91-.74-1.42-1.49-2.83-2.28-4.33,2.43.47,4.5,1.57,6.5,3.49v-3.23c1.96.42,3.06,1.69,4.05,3.46.44-1.07.79-1.94,1.14-2.81"/>
          <path class="cls-1" d="m225.3,283.28s-.02.02-.03.03c.01-.01.02-.02.03-.04h0Z"/>
          <path class="cls-1" d="m225.3,283.28s-.02.02-.03.03c.01-.01.02-.02.03-.04h0Z"/>
        </g>
      </g>
      <text class="cls-5" transform="translate(0 319.2)"><tspan x="0" y="0">Pioneering Hub for Outreach, Notification, and Instant Xchanges</tspan></text>
    </g>
  </g>
</svg>